<?xml version="1.0" encoding="utf-8"?>
<!-- Generator: Adobe Illustrator 21.1.0, SVG Export Plug-In . SVG Version: 6.00 Build 0)  -->
<svg version="1.1" id="Layer_1" xmlns="http://www.w3.org/2000/svg" xmlns:xlink="http://www.w3.org/1999/xlink" x="0px" y="0px"
	 viewBox="0 0 100 100" style="enable-background:new 0 0 100 100;" xml:space="preserve">
<style type="text/css">
	.st0{clip-path:url(#SVGID_2_);}
	.st1{fill:#ECC19C;}
	.st2{fill:#7D6991;}
	.st3{fill:#DDE1E9;}
	.st4{fill:#1A1A1A;}
	.st5{fill:#141720;}
	.st6{opacity:0.5;fill:#ECC19C;}
</style>
<g>
	<g>
		<defs>
			<circle id="SVGID_1_" cx="50" cy="50" r="48.5"/>
		</defs>
		<use xlink:href="#SVGID_1_"  style="overflow:visible;fill:#4AC8EB;"/>
		<clipPath id="SVGID_2_">
			<use xlink:href="#SVGID_1_"  style="overflow:visible;"/>
		</clipPath>
		<g class="st0">
			<path class="st1" d="M78.1,105L78.1,105l-56.2,0v0c0-3.2,0.5-6.2,1.5-9.1c0.2-0.5,0.4-1,0.6-1.5v0c0.2-0.5,0.4-1,0.7-1.5
				c0.9-2,2.1-3.8,3.4-5.5c0.3-0.4,0.7-0.8,1-1.2c0.2-0.2,0.4-0.4,0.5-0.6c0.2-0.2,0.4-0.4,0.6-0.6c0.9-0.9,2-1.8,3-2.6
				c0.5-0.4,1.1-0.8,1.6-1.1c0.2-0.1,0.4-0.3,0.6-0.4c0.1-0.1,0.2-0.1,0.3-0.2c0.3-0.2,0.6-0.3,0.8-0.5c0,0,0,0,0,0
				c0.2-0.1,0.5-0.3,0.7-0.4c0.7-0.4,1.3-0.8,1.9-1.3c1.9-1.5,3.6-3.5,4.7-5.7c0.4-0.7,0.7-1.4,1-2.2c0.7-1.9,1-3.9,1-6l4.1,0h0
				l4.2,0c0,2.1,0.4,4.1,1,5.9c0.3,0.8,0.6,1.5,0.9,2.2c1.2,2.2,2.8,4.2,4.7,5.7c0.4,0.3,0.8,0.6,1.2,0.9c0,0,0.1,0.1,0.1,0.1
				c0.2,0.1,0.4,0.3,0.6,0.4c0.2,0.1,0.4,0.3,0.7,0.4c0,0,0.1,0,0.1,0c0.2,0.1,0.5,0.3,0.7,0.4c0.2,0.1,0.4,0.2,0.6,0.4
				c0.2,0.1,0.4,0.3,0.6,0.4c0.4,0.3,0.9,0.6,1.3,0.9c0,0,0,0,0,0h0c0.5,0.4,1.1,0.8,1.6,1.3c0.5,0.4,1,0.9,1.5,1.4
				C75,90.2,78.1,97.2,78.1,105z"/>
			<path class="st2" d="M78.1,105H21.9c0-3.2,0.5-6.2,1.5-9.1c0.2-0.5,0.4-1,0.6-1.5v0c0.2-0.5,0.4-1,0.7-1.5c0.9-2,2.1-3.8,3.4-5.5
				c0.3-0.4,0.7-0.8,1-1.2c0.2-0.2,0.4-0.4,0.5-0.6c0.2-0.2,0.4-0.4,0.6-0.6c0.9-0.9,2-1.8,3-2.6c0.5-0.4,1.1-0.8,1.6-1.1
				c0.2-0.1,0.4-0.3,0.6-0.4c0.1-0.1,0.2-0.1,0.3-0.2c0.3-0.2,0.6-0.3,0.8-0.5c0,0,0,0,0,0v0c0.2-0.1,0.5-0.3,0.7-0.4
				c0.7-0.4,1.3-0.8,1.9-1.3c0,0,0,0,0,0c2.7,2.8,6.6,4.6,10.8,4.6h0c4.2,0,8.1-1.7,10.8-4.6l0,0c0.4,0.3,0.8,0.6,1.2,0.9
				c0,0,0.1,0.1,0.1,0.1c0.2,0.1,0.4,0.2,0.6,0.4c0.2,0.1,0.4,0.3,0.7,0.4c0,0,0.1,0,0.1,0c0.2,0.1,0.5,0.3,0.7,0.4
				c0.2,0.1,0.4,0.3,0.6,0.4c0.2,0.1,0.4,0.3,0.6,0.4c0.4,0.3,0.9,0.6,1.3,0.9h0c0.5,0.4,1.1,0.8,1.6,1.3c0.5,0.4,1,0.9,1.5,1.4
				C75,90.2,78.1,97.2,78.1,105z"/>
			<g>
				<path class="st3" d="M64.3,80.8L64.3,80.8l-0.6,0.6c-3.6,3.7-8.5,5.7-13.7,5.7c0,0,0,0,0,0c-5.2,0-10.1-2.1-13.7-5.8l-0.6-0.6
					l0,0c0.3-0.2,0.6-0.3,0.8-0.5c0,0,0,0,0,0v0c0.2-0.1,0.5-0.3,0.7-0.4c0.7-0.4,1.3-0.8,1.9-1.3c0,0,0,0,0,0
					c2.7,2.8,6.6,4.6,10.8,4.6h0c4.2,0,8.1-1.7,10.8-4.6l0,0c0.4,0.3,0.8,0.6,1.2,0.9c0,0,0.1,0.1,0.1,0.1c0.2,0.1,0.4,0.2,0.6,0.4
					c0.2,0.1,0.4,0.3,0.7,0.4c0,0,0.1,0,0.1,0C63.8,80.5,64,80.6,64.3,80.8z"/>
			</g>
			<path class="st1" d="M71.6,34.5v12.9c0,0.2,0,0.5,0,0.7c0,0.2,0,0.4,0,0.5c0,0.2,0,0.4,0,0.5c0,0.1,0,0.2,0,0.4
				c0,0.1,0,0.1,0,0.2c0,0.1,0,0.3,0,0.4c0,0.1,0,0.3,0,0.4c0,0.1,0,0.2,0,0.4c0,0.4-0.1,0.8-0.2,1.1c0,0.3-0.1,0.5-0.1,0.8
				c0,0,0,0,0,0c0,0,0,0.1,0,0.1c0,0,0,0,0,0c0,0,0,0,0,0c0,0.1,0,0.1,0,0.2c0,0.1,0,0.1,0,0.2c0,0.1,0,0.1,0,0.2
				c0,0.1,0,0.2-0.1,0.3c0,0.1,0,0.1,0,0.2c0,0,0,0.1,0,0.1c-0.1,0.4-0.2,0.9-0.4,1.3c-0.1,0.2-0.1,0.4-0.2,0.6c0,0,0,0,0,0.1
				c-0.1,0.2-0.1,0.4-0.2,0.5c0,0.1,0,0.1-0.1,0.2c-0.1,0.2-0.1,0.3-0.2,0.5c-0.1,0.2-0.2,0.4-0.2,0.6c-0.1,0.2-0.2,0.4-0.2,0.5
				c0,0,0,0.1,0,0.1c-0.1,0.2-0.2,0.4-0.3,0.6c-0.1,0.2-0.2,0.4-0.3,0.6c-0.2,0.4-0.4,0.8-0.6,1.2l-0.3,0.5
				c-0.8,1.4-1.7,2.7-2.7,3.9c-0.1,0.2-0.3,0.3-0.4,0.5c-0.2,0.2-0.4,0.5-0.6,0.7c-0.2,0.2-0.4,0.4-0.5,0.6c-0.5,0.5-1,1.1-1.6,1.6
				c-0.1,0.1-0.2,0.2-0.3,0.3c-0.2,0.2-0.4,0.3-0.5,0.5c-0.1,0.1-0.3,0.2-0.4,0.4c-0.4,0.3-0.8,0.6-1.2,0.9
				c-0.2,0.1-0.3,0.2-0.5,0.3c-0.3,0.2-0.5,0.4-0.8,0.5c-0.1,0.1-0.3,0.2-0.5,0.3c-0.5,0.3-1,0.6-1.5,0.8c0,0-0.1,0-0.1,0.1
				c-0.1,0.1-0.3,0.1-0.4,0.2c-0.1,0.1-0.3,0.1-0.4,0.2c-0.2,0.1-0.3,0.2-0.5,0.2c-0.1,0-0.1,0.1-0.2,0.1c-0.2,0.1-0.4,0.2-0.6,0.2
				c-0.3,0.1-0.5,0.2-0.8,0.2c-0.2,0.1-0.4,0.1-0.5,0.1c0,0,0,0,0,0c-0.2,0-0.4,0.1-0.5,0.1c0,0-0.1,0-0.1,0c-0.1,0-0.3,0.1-0.4,0.1
				c-0.2,0-0.4,0.1-0.6,0.1c-0.1,0-0.1,0-0.2,0c-0.2,0-0.3,0-0.5,0h0c-0.2,0-0.3,0-0.5,0c-0.1,0-0.1,0-0.2,0c-0.1,0-0.3,0-0.5,0
				c0,0-0.1,0-0.1,0c-0.2,0-0.4-0.1-0.6-0.1c-0.2,0-0.3-0.1-0.5-0.1c-0.9-0.2-1.8-0.5-2.8-0.9c-0.3-0.1-0.6-0.3-1-0.5
				c-0.5-0.2-1-0.5-1.5-0.8c-0.4-0.2-0.8-0.5-1.2-0.8c-0.2-0.1-0.4-0.3-0.6-0.4c-0.6-0.5-1.3-1-1.9-1.5c-0.2-0.2-0.3-0.3-0.5-0.5
				c-0.2-0.2-0.3-0.3-0.5-0.5c-0.4-0.4-0.8-0.8-1.2-1.2c-0.2-0.2-0.3-0.3-0.5-0.5c-0.4-0.5-0.8-1-1.2-1.5c-0.2-0.2-0.3-0.4-0.4-0.6
				c-0.5-0.7-1-1.5-1.5-2.2c-0.1-0.2-0.3-0.4-0.4-0.6c-0.1-0.2-0.3-0.5-0.4-0.8c-0.5-1-1-1.9-1.4-3c-0.1-0.1-0.1-0.3-0.2-0.4
				c-0.1-0.2-0.2-0.4-0.2-0.6c-0.1-0.3-0.2-0.6-0.3-0.8c-0.1-0.3-0.2-0.6-0.3-0.9c-0.1-0.3-0.2-0.6-0.2-0.8
				c-0.1-0.3-0.2-0.6-0.2-0.9c0,0,0-0.1,0-0.1c-0.1-0.4-0.2-0.9-0.3-1.3c-0.1-0.6-0.2-1.2-0.3-1.7c0-0.2,0-0.4-0.1-0.6
				c0-0.2,0-0.4,0-0.6c0-0.4,0-0.7-0.1-1.1c0-0.2,0-0.5,0-0.7V34.5c0-3,0.6-5.8,1.7-8.4c0-0.1,0.1-0.1,0.1-0.2
				c0.4-1,0.9-1.9,1.5-2.8c0.1-0.1,0.2-0.3,0.3-0.4C35.8,16.9,42.4,13,50,13h0c1.6,0,3.2,0.2,4.8,0.5c1.4,0.3,2.8,0.8,4,1.4
				c1.7,0.8,3.4,1.8,4.8,3c1.2,1,2.3,2.1,3.3,3.4c0.4,0.5,0.7,1,1.1,1.5c0.1,0.1,0.2,0.3,0.3,0.4c0.6,0.9,1,1.8,1.5,2.8l0.1,0.2
				c1.1,2.5,1.7,5.3,1.7,8.2C71.6,34.4,71.6,34.5,71.6,34.5z"/>
			<ellipse class="st1" cx="50" cy="57.7" rx="5.3" ry="1.6"/>
			<path class="st4" d="M68.2,38c0-0.1-0.1-0.2-0.1-0.2c-0.7-0.1-4-0.6-7.6-0.6c-4,0-9.2,1.3-10.1,1.3h-0.8c-0.4,0-1.8-0.3-3.5-0.6
				c-2-0.3-4.5-0.7-6.6-0.7c-2.6,0-5,0.2-6.5,0.4c-0.5,0.1-0.9,0.1-1.1,0.1c-0.1,0-0.1,0.1-0.1,0.2l0,2.2c0,0.1,0,0.1,0.1,0.2
				l0.2,0.1c0.4,0.1,0.3,6.6,2.3,8.3c1.1,1,2.2,1.5,6.5,1.5c2.5,0,4.1-0.7,5.6-2.7c1.1-1.4,2-4.9,2-4.9c0.3-1.4,1.3-1.5,1.5-1.5
				c0,0,0,0,0,0h0c0,0,0,0,0,0c0,0,1.2,0,1.5,1.5c0,0,1,3.4,2,4.9c1.5,2,3.1,2.7,5.6,2.7c4.3,0,5.3-0.5,6.5-1.5
				c1.9-1.6,1.9-8.1,2.3-8.3l0.2-0.1c0.1,0,0.1-0.1,0.1-0.2L68.2,38z M46.5,45.7c-0.6,1.5-2.3,3.4-4.6,3.6c-6.9,0.3-7.2-1.6-7.7-3.1
				s-0.6-2.9-0.4-4.4c0.2-1.5,0.6-2.4,1.3-2.9c0.3-0.2,0.6-0.4,1.5-0.5c0.7-0.1,1.9-0.2,3.8-0.2c1.1,0,2.2,0.1,3.1,0.2
				c2.5,0.4,4.1,1.2,4.1,2.1C47.6,41.1,47.4,43.5,46.5,45.7z M65.9,46.2c-0.4,1.5-0.8,3.5-7.7,3.1c-2.3-0.1-3.9-2.1-4.6-3.6
				c-0.9-2.2-1.1-4.7-1.1-5.2c0-1.1,3.2-2.3,7.2-2.3c4.1,0,4.7,0.3,5.3,0.7c0.7,0.4,1.1,1.3,1.3,2.9C66.4,43.3,66.3,44.6,65.9,46.2z
				"/>
			<g>
				<path class="st5" d="M71.6,26.2C71.6,26.2,71.6,26.2,71.6,26.2l-43.2,0c0-15.3,10.3-14.6,21.6-13.4c0,0,0,0,0,0
					c0.8,0.1,1.6,0.2,2.4,0.3c8.4,0.9,15.3-2.7,18.7-5.9C75.8,10.5,76.7,22.8,71.6,26.2z"/>
				<path class="st5" d="M36,25.3l-0.1,0.4c-0.1,0.2-0.1,0.4-0.2,0.5c-0.1,0.1-0.1,0.3-0.2,0.4c-1,2.7-2.5,5.1-4.3,7.3
					c-1.3,1.5-2.6,4-2.7,7.7c0,0.2,0,0.4,0,0.7v-7.7c0-4.4,0-8.4,0-8.4l1.8-0.2l1.7-0.2l2-0.2L36,25.3z"/>
				<path class="st5" d="M71.7,26.2l-7.5-0.9l0.1,0.4c1,3,2.6,5.8,4.7,8.2c1.4,1.6,2.7,4.3,2.7,8.4C71.7,36.6,71.7,26.2,71.7,26.2z"
					/>
				<ellipse class="st5" cx="50" cy="25.3" rx="16.1" ry="3"/>
			</g>
			<polygon class="st5" points="50,64.7 47.1,64.7 50,70.5 52.9,64.7 			"/>
			<path class="st6" d="M50,12.8V105H21.9v0c0-3.2,0.5-6.2,1.5-9.1c0.2-0.5,0.4-1,0.6-1.5v0c0.2-0.5,0.4-1,0.7-1.5
				c0.9-2,2.1-3.8,3.4-5.5c0.3-0.4,0.7-0.8,1-1.2c0.2-0.2,0.4-0.4,0.5-0.6c0.2-0.2,0.4-0.4,0.6-0.6c0.9-0.9,2-1.8,3-2.6
				c0.5-0.4,1.1-0.8,1.6-1.1c0.2-0.1,0.4-0.3,0.6-0.4c0.1-0.1,0.2-0.1,0.3-0.2c0.3-0.2,0.6-0.3,0.8-0.5c0,0,0,0,0,0v0
				c0.2-0.1,0.5-0.3,0.7-0.4c0.7-0.4,1.3-0.8,1.9-1.3c0,0,0,0,0,0c1.9-1.5,3.6-3.5,4.7-5.7c-0.5-0.2-1-0.5-1.5-0.8
				c-0.4-0.2-0.8-0.5-1.2-0.8c-0.2-0.1-0.4-0.3-0.6-0.4c-0.6-0.5-1.3-1-1.9-1.5c-0.2-0.2-0.3-0.3-0.5-0.5c-0.2-0.2-0.3-0.3-0.5-0.5
				c-0.4-0.4-0.8-0.8-1.2-1.2c-0.2-0.2-0.3-0.3-0.5-0.5c-0.4-0.5-0.8-1-1.2-1.5c-0.2-0.2-0.3-0.4-0.4-0.6c-0.5-0.7-1-1.5-1.5-2.2
				c-0.1-0.2-0.3-0.4-0.4-0.6c-0.1-0.2-0.3-0.5-0.4-0.8c-0.5-1-1-1.9-1.4-3c-0.1-0.1-0.1-0.3-0.2-0.4c-0.1-0.2-0.2-0.4-0.2-0.6
				c-0.1-0.3-0.2-0.6-0.3-0.8c-0.1-0.3-0.2-0.6-0.3-0.9c-0.1-0.3-0.2-0.6-0.2-0.8c-0.1-0.3-0.2-0.6-0.2-0.9c0,0,0-0.1,0-0.1
				c-0.1-0.4-0.2-0.9-0.3-1.3c-0.1-0.6-0.2-1.2-0.3-1.7c0-0.2,0-0.4-0.1-0.6c0-0.2,0-0.4,0-0.6c0-0.4,0-0.7-0.1-1.1
				c0-0.2,0-0.5,0-0.7V34.5c0-4.4,0-8.4,0-8.4C28.4,10.9,38.7,11.5,50,12.8z"/>
		</g>
	</g>
</g>
</svg>
